<?xml version="1.0" encoding="UTF-8" standalone="no" ?>
<!DOCTYPE svg PUBLIC "-//W3C//DTD SVG 1.1//EN" "http://www.w3.org/Graphics/SVG/1.1/DTD/svg11.dtd">
<svg xmlns="http://www.w3.org/2000/svg" xmlns:xlink="http://www.w3.org/1999/xlink" version="1.1" width="1080" height="1080" viewBox="0 0 1080 1080" xml:space="preserve">
<desc>Created with Fabric.js 5.2.4</desc>
<defs>
</defs>
<g transform="matrix(1 0 0 1 540 540)" id="60119e73-392b-41a6-8310-56695b9e902c"  >
</g>
<g transform="matrix(1 0 0 1 540 540)" id="d2fb68f4-308f-49f9-aab5-79dafe400760"  >
<rect style="stroke: none; stroke-width: 1; stroke-dasharray: none; stroke-linecap: butt; stroke-dashoffset: 0; stroke-linejoin: miter; stroke-miterlimit: 4; fill: rgb(255,255,255); fill-rule: nonzero; opacity: 1; visibility: hidden;" vector-effect="non-scaling-stroke"  x="-540" y="-540" rx="0" ry="0" width="1080" height="1080" />
</g>
<g transform="matrix(0.61 0 0 0.61 458.47 837.25)"  >
<path style="stroke: none; stroke-width: 1; stroke-dasharray: none; stroke-linecap: butt; stroke-dashoffset: 0; stroke-linejoin: miter; stroke-miterlimit: 4; fill: rgb(214,166,89); fill-rule: nonzero; opacity: 1;" vector-effect="non-scaling-stroke"  transform=" translate(-5282.5, -1559.5)" d="M 4531 1732 L 5782 1732 C 5877 1732 5960 1668 5984 1577 L 6034 1387 L 4531 1387 L 4531 1732 z" stroke-linecap="round" />
</g>
<g transform="matrix(0.61 0 0 0.61 498.98 529.24)"  >
<path style="stroke: none; stroke-width: 1; stroke-dasharray: none; stroke-linecap: butt; stroke-dashoffset: 0; stroke-linejoin: miter; stroke-miterlimit: 4; fill: rgb(214,166,89); fill-rule: nonzero; opacity: 1;" vector-effect="non-scaling-stroke"  transform=" translate(-5349, -1050.5)" d="M 4531 1223 L 5916 1223 C 6010 1223 6093 1160 6117 1068 L 6167 878 L 4531 878 L 4531 1223 z" stroke-linecap="round" />
</g>
<g transform="matrix(0.61 0 0 0.61 539.49 221.54)"  >
<path style="stroke: none; stroke-width: 1; stroke-dasharray: none; stroke-linecap: butt; stroke-dashoffset: 0; stroke-linejoin: miter; stroke-miterlimit: 4; fill: rgb(214,166,89); fill-rule: nonzero; opacity: 1;" vector-effect="non-scaling-stroke"  transform=" translate(-5415.5, -542)" d="M 4531 369 L 4531 715 L 6049 715 C 6143 715 6226 651 6250 559 L 6300 369 L 4531 369 z" stroke-linecap="round" />
</g>
</svg>