<svg width="190" height="29" viewBox="0 0 190 29" fill="none" xmlns="http://www.w3.org/2000/svg">
<path d="M110.823 15.1934L114.099 2.80803H121.013C122.213 2.80803 123.048 3.21603 123.513 4.0307C123.98 4.84537 124.036 5.92403 123.68 7.26669L123.417 8.25737C123.063 9.60137 122.437 10.68 121.54 11.4947C120.643 12.3094 119.593 12.7174 118.393 12.7174H114.563L113.907 15.1934H110.823ZM119.311 5.25204H116.536L115.209 10.272H117.984C118.644 10.272 119.139 10.1174 119.469 9.80937C119.8 9.50137 120.051 9.0227 120.223 8.37336L120.568 7.06803C120.739 6.4187 120.739 5.95469 120.568 5.67336C120.393 5.39203 119.977 5.25204 119.316 5.25204" fill="white"/>
<path d="M125.428 6.48951C125.553 6.01618 125.744 5.55885 126.001 5.11885C126.259 4.67885 126.584 4.28817 126.977 3.94684C127.369 3.60551 127.835 3.32951 128.372 3.12151C128.909 2.91218 129.512 2.80684 130.184 2.80684H133.04L132.407 5.20151H130.248C129.696 5.20151 129.299 5.30017 129.057 5.49884C128.816 5.69617 128.631 6.03885 128.504 6.52285L126.865 12.7148H123.781L125.428 6.48951Z" fill="white"/>
<path d="M142.101 8.68551H135.139L135.121 8.75218C134.955 9.38018 134.98 9.79751 135.195 10.0068C135.409 10.2162 135.848 10.3202 136.508 10.3202H141.443L140.809 12.7148H136.052C135.1 12.7148 134.324 12.6068 133.727 12.3935C133.129 12.1788 132.684 11.8762 132.393 11.4855C132.101 11.0948 131.939 10.6242 131.907 10.0735C131.873 9.52284 131.944 8.91617 132.119 8.25617L132.451 7.00151C132.797 5.69084 133.447 4.64284 134.404 3.85484C135.357 3.06817 136.685 2.67485 138.383 2.67485H139.033C139.941 2.67485 140.671 2.78551 141.217 3.00551C141.765 3.22551 142.161 3.53618 142.407 3.93751C142.653 4.34018 142.772 4.82151 142.764 5.38284C142.751 5.94418 142.661 6.56685 142.481 7.24818L142.101 8.68551ZM138.804 4.88684H137.539C137.019 4.88684 136.627 5.00284 136.359 5.23484C136.092 5.46551 135.888 5.85084 135.745 6.39084L135.688 6.60418H139.731L139.787 6.39084C139.929 5.85084 139.925 5.46551 139.773 5.23484C139.624 5.00284 139.3 4.88684 138.801 4.88684" fill="white"/>
<path d="M148.9 9.2488L146.395 8.72081C145.473 8.52214 144.82 8.17546 144.437 7.67946C144.055 7.1848 143.973 6.5248 144.192 5.69813C144.293 5.3128 144.463 4.94347 144.703 4.59147C144.943 4.23947 145.251 3.93147 145.629 3.66747C146.008 3.40347 146.457 3.19414 146.98 3.03947C147.501 2.88614 148.093 2.8088 148.753 2.8088H156.837L156.204 5.20347H147.876C147.552 5.20347 147.323 5.25147 147.188 5.35147C147.053 5.45014 146.971 5.5608 146.939 5.68213C146.903 5.81413 146.923 5.93013 146.992 6.0288C147.064 6.12747 147.212 6.19947 147.439 6.24347L149.715 6.72214C150.841 6.9648 151.599 7.3248 151.985 7.80347C152.372 8.28213 152.461 8.91813 152.252 9.71147C152.016 10.6035 151.492 11.3275 150.679 11.8821C149.867 12.4381 148.785 12.7168 147.432 12.7168H142.659L143.292 10.3221H148.504C148.849 10.3221 149.1 10.2728 149.256 10.1741C149.412 10.0741 149.511 9.94746 149.552 9.7928C149.596 9.6288 149.552 9.50747 149.428 9.43014C149.304 9.35414 149.127 9.2928 148.9 9.2488Z" fill="white"/>
<path d="M153.688 5.20346L154.321 2.8088H155.896L156.429 0.794128H159.269L158.736 2.8088H164.012L163.379 5.20346H158.104L157.041 9.21546C156.932 9.63413 156.94 9.92347 157.072 10.0835C157.204 10.2421 157.464 10.3221 157.853 10.3221H159.428L158.795 12.7168H156.863C155.521 12.7168 154.636 12.4275 154.211 11.8501C153.784 11.2715 153.727 10.3941 154.039 9.21546L155.1 5.20346H153.688Z" fill="white"/>
<path d="M160.823 12.7168L163.443 2.8088H166.527L163.907 12.7168H160.823ZM166.755 1.95013H163.669L164.185 0.000804387H167.269L166.755 1.95013Z" fill="white"/>
<path d="M170.312 15.1934H165.652L166.273 12.8494H170.964C171.799 12.8494 172.365 12.7494 172.667 12.5507C172.968 12.3534 173.172 12.0547 173.276 11.66L173.333 11.444H169.744C168.597 11.444 167.779 11.0867 167.285 10.3707C166.793 9.65603 166.715 8.66537 167.049 7.3987L167.149 7.02003C167.496 5.70936 168.109 4.68003 168.989 3.9307C169.868 3.1827 170.883 2.80803 172.029 2.80803H178.701L176.439 11.3614C176.075 12.7387 175.42 13.7214 174.473 14.3094C173.528 14.8987 172.141 15.1934 170.312 15.1934ZM171.297 9.1987H173.927L174.979 5.22003H172.349C171.765 5.22003 171.328 5.33736 171.039 5.5747C170.748 5.8107 170.528 6.21604 170.376 6.78804L170.175 7.54804C170.027 8.10937 170.031 8.52537 170.188 8.7947C170.344 9.06403 170.715 9.1987 171.299 9.1987" fill="white"/>
<path d="M188.784 8.68551H181.827L181.809 8.75218C181.643 9.38018 181.668 9.79751 181.883 10.0068C182.097 10.2162 182.535 10.3202 183.195 10.3202H188.125L187.493 12.7148H182.74C181.788 12.7148 181.013 12.6068 180.416 12.3935C179.819 12.1788 179.375 11.8762 179.083 11.4855C178.791 11.0948 178.629 10.6242 178.597 10.0735C178.563 9.52284 178.635 8.91617 178.809 8.25617L179.141 7.00151C179.487 5.69084 180.137 4.64284 181.091 3.85484C182.045 3.06817 183.371 2.67485 185.068 2.67485H185.719C186.627 2.67485 187.355 2.78551 187.901 3.00551C188.449 3.22551 188.844 3.53618 189.089 3.93751C189.336 4.34018 189.453 4.82151 189.448 5.38284C189.435 5.94418 189.344 6.56685 189.164 7.24818L188.784 8.68551ZM185.489 4.88684H184.225C183.705 4.88684 183.313 5.00284 183.047 5.23484C182.78 5.46551 182.576 5.85084 182.432 6.39084L182.376 6.60418H186.415L186.472 6.39084C186.615 5.85084 186.611 5.46551 186.459 5.23484C186.309 5.00284 185.984 4.88684 185.487 4.88684" fill="white"/>
<path d="M107.457 27.9062L110.077 17.9983H121.635C123.119 17.9983 124.092 18.3623 124.56 19.0876C125.028 19.8156 125.097 20.7996 124.768 22.0449L123.219 27.9062H120.135L121.707 21.9623C121.841 21.4556 121.851 21.0943 121.741 20.8796C121.629 20.6649 121.336 20.5582 120.861 20.5582H118.816L116.872 27.9062H113.788L115.732 20.5582H112.485L110.541 27.9062H107.457Z" fill="white"/>
<path d="M136.844 22.3589L136.529 23.5483C136.165 24.9243 135.467 26.0229 134.433 26.8416C133.399 27.6629 132.124 28.0723 130.609 28.0723H129.473C127.957 28.0723 126.897 27.6629 126.293 26.8416C125.687 26.0229 125.565 24.9243 125.929 23.5483L126.245 22.3589C126.608 20.9829 127.311 19.8843 128.349 19.0643C129.389 18.2443 130.667 17.8336 132.181 17.8336H133.317C134.833 17.8336 135.889 18.2443 136.489 19.0643C137.091 19.8843 137.208 20.9829 136.844 22.3589ZM133.748 22.0949C133.917 21.4563 133.927 20.9803 133.777 20.6656C133.628 20.3536 133.256 20.1949 132.66 20.1949H131.589C130.993 20.1949 130.536 20.3536 130.215 20.6656C129.893 20.9803 129.648 21.4563 129.479 22.0949L129.029 23.7949C128.857 24.4443 128.848 24.9269 129.005 25.2403C129.16 25.5536 129.535 25.7109 130.129 25.7109H131.201C131.796 25.7109 132.252 25.5536 132.567 25.2403C132.883 24.9269 133.127 24.4443 133.299 23.7949L133.748 22.0949Z" fill="white"/>
<path d="M138.288 20.3929L138.921 17.9983H140.496L141.029 15.9836H143.871L143.337 17.9983H146.664L146.031 20.3929H142.704L141.643 24.4049C141.532 24.8236 141.541 25.1129 141.672 25.2729C141.804 25.4316 142.064 25.5116 142.453 25.5116H144.677L144.044 27.9062H141.463C140.121 27.9062 139.237 27.6169 138.812 27.0396C138.385 26.4609 138.328 25.5836 138.639 24.4049L139.7 20.3929H138.288Z" fill="white"/>
<path d="M157.119 22.3589L156.804 23.5483C156.44 24.9243 155.74 26.0229 154.707 26.8416C153.672 27.6629 152.399 28.0723 150.884 28.0723H149.748C148.232 28.0723 147.172 27.6629 146.565 26.8416C145.96 26.0229 145.84 24.9243 146.204 23.5483L146.517 22.3589C146.883 20.9829 147.584 19.8843 148.624 19.0643C149.663 18.2443 150.94 17.8336 152.455 17.8336H153.591C155.107 17.8336 156.164 18.2443 156.764 19.0643C157.364 19.8843 157.481 20.9829 157.119 22.3589ZM154.023 22.0949C154.192 21.4563 154.201 20.9803 154.052 20.6656C153.901 20.3536 153.529 20.1949 152.933 20.1949H151.863C151.267 20.1949 150.809 20.3536 150.488 20.6656C150.167 20.9803 149.923 21.4563 149.753 22.0949L149.303 23.7949C149.131 24.4443 149.123 24.9269 149.279 25.2403C149.433 25.5536 149.808 25.7109 150.403 25.7109H151.476C152.071 25.7109 152.527 25.5536 152.841 25.2403C153.157 24.9269 153.4 24.4443 153.572 23.7949L154.023 22.0949Z" fill="white"/>
<path d="M158.839 21.6809C158.964 21.2076 159.155 20.7503 159.412 20.3103C159.669 19.8703 159.995 19.4796 160.388 19.1369C160.781 18.7969 161.247 18.5209 161.783 18.3129C162.32 18.1036 162.923 17.9983 163.595 17.9983H166.451L165.817 20.3929H163.659C163.107 20.3929 162.711 20.4916 162.468 20.6903C162.227 20.8876 162.041 21.2303 161.915 21.7143L160.276 27.9062H157.192L158.839 21.6809Z" fill="white"/>
<path d="M171.289 24.4382L168.784 23.9102C167.863 23.7116 167.209 23.3649 166.827 22.8689C166.444 22.3743 166.363 21.7143 166.58 20.8876C166.683 20.5023 166.853 20.1329 167.092 19.7809C167.331 19.4289 167.64 19.1209 168.017 18.8569C168.397 18.5916 168.847 18.3836 169.369 18.2289C169.891 18.0756 170.483 17.9983 171.143 17.9983H175.981L175.347 20.3929H170.265C169.941 20.3929 169.711 20.4409 169.577 20.5409C169.443 20.6396 169.36 20.7502 169.328 20.8716C169.293 21.0036 169.312 21.1196 169.381 21.2182C169.453 21.3169 169.601 21.3889 169.828 21.4329L172.104 21.9116C173.231 22.1542 173.987 22.5142 174.375 22.9942C174.761 23.4716 174.851 24.1076 174.641 24.9009C174.405 25.7929 173.881 26.5156 173.068 27.0729C172.256 27.6276 171.175 27.9062 169.821 27.9062H165.048L165.681 25.5116H170.973C171.32 25.5116 171.557 25.4622 171.687 25.3622C171.815 25.2636 171.9 25.1369 171.941 24.9836C171.984 24.8182 171.941 24.6969 171.819 24.6196C171.693 24.5436 171.516 24.4822 171.289 24.4382Z" fill="white"/>
<path d="M76.4634 28.1836H99.63C101.382 28.1836 102.915 27.0996 103.359 25.5449L104.281 22.3223H76.4634V28.1836Z" fill="white"/>
<path d="M76.4634 18.4727H102.159C103.917 18.4727 105.455 17.3887 105.9 15.834L106.824 12.6113H76.4634V18.4727Z" fill="white"/>
<path d="M76.4634 2.90234V8.76367H104.694C106.455 8.76367 107.995 7.67968 108.441 6.12634L109.367 2.90234H76.4634Z" fill="white"/>
<path d="M29.951 3.21426C29.227 2.92359 28.4657 2.77693 27.6871 2.77693C26.0151 2.77693 24.3964 3.47692 23.247 4.69825L11.951 16.6903L1.58036 27.4676C1.4937 27.5583 1.41238 27.6529 1.31905 27.7649L0.965698 28.1836H9.75639L16.5497 21.1236L27.4337 9.57026V21.9769H33.7337L33.7591 21.7516C33.7884 21.4956 33.803 21.2663 33.803 21.0489V8.93159C33.803 6.39692 32.291 4.15292 29.951 3.21426Z" fill="white"/>
<path d="M38.1868 15.5416C38.1868 22.5123 43.8987 28.1816 50.9187 28.1816H72.0788V21.775H50.9187C47.4574 21.775 44.6401 18.979 44.6401 15.5416C44.6401 12.1043 47.4574 9.30831 50.9187 9.30831H72.0788V2.90164H50.9187C43.8987 2.90164 38.1868 8.57098 38.1868 15.5416Z" fill="white"/>
</svg>
