<?xml version="1.0" encoding="UTF-8"?>
<!DOCTYPE svg PUBLIC "-//W3C//DTD SVG 1.1//EN" "http://www.w3.org/Graphics/SVG/1.1/DTD/svg11.dtd">
<!-- Creator: CorelDRAW X7 -->
<svg xmlns="http://www.w3.org/2000/svg" xml:space="preserve" width="11.0236in" height="1.9685in" version="1.1" style="shape-rendering:geometricPrecision; text-rendering:geometricPrecision; image-rendering:optimizeQuality; fill-rule:evenodd; clip-rule:evenodd"
viewBox="0 0 11024 1969"
 xmlns:xlink="http://www.w3.org/1999/xlink">
 <defs>
  <style type="text/css">
   <![CDATA[
    .fil0 {fill:none}
    .fil1 {fill:#171717;fill-rule:nonzero}
    .fil2 {fill:#D6A659;fill-rule:nonzero}
   ]]>
  </style>
 </defs>
 <g id="Layer_x0020_1">
  <metadata id="CorelCorpID_0Corel-Layer"/>
  <rect class="fil0" x="3" y="-6" width="11024" height="1969"/>
  <g id="_2044324700096">
   <path class="fil1" d="M6351 1032l171 -649 363 0c63,0 106,22 131,64 24,43 27,100 9,170l-14 52c-19,70 -52,127 -99,170 -47,42 -102,64 -165,64l-200 0 -35 129 -161 0zm445 -521l-146 0 -69 263 145 0c35,0 61,-8 78,-24 17,-16 30,-41 39,-75l18 -68c9,-34 9,-59 0,-74 -9,-14 -31,-22 -65,-22z"/>
   <path class="fil1" d="M7116 576c7,-24 17,-48 30,-72 14,-23 31,-43 51,-61 21,-18 45,-32 73,-43 29,-11 60,-17 95,-17l150 0 -33 126 -113 0c-29,0 -50,5 -63,15 -12,11 -22,29 -29,54l-86 325 -161 0 86 -327z"/>
   <path class="fil1" d="M7990 691l-365 0 -1 4c-9,33 -7,55 4,66 11,11 34,16 69,16l258 0 -33 126 -249 0c-50,0 -91,-6 -122,-17 -31,-12 -55,-27 -70,-48 -15,-20 -24,-45 -25,-74 -2,-29 2,-60 11,-95l17 -66c18,-69 52,-123 102,-165 50,-41 120,-62 209,-62l34 0c48,0 86,6 115,18 28,11 49,28 62,49 13,21 19,46 19,75 -1,30 -6,62 -15,98l-20 75zm-173 -199l-66 0c-27,0 -48,6 -62,19 -14,12 -25,32 -32,60l-3 11 212 0 3 -11c7,-28 7,-48 -1,-60 -8,-13 -25,-19 -51,-19z"/>
   <path class="fil1" d="M8346 721l-131 -28c-48,-10 -83,-28 -103,-54 -20,-26 -24,-61 -13,-104 6,-20 15,-40 27,-58 13,-19 29,-35 49,-49 20,-14 43,-24 71,-33 27,-8 58,-12 92,-12l424 0 -33 126 -437 0c-16,0 -29,2 -36,8 -7,5 -11,11 -13,17 -1,7 -1,13 3,18 4,5 12,9 24,11l119 25c59,13 99,32 119,57 20,25 25,59 14,100 -13,47 -40,85 -83,114 -42,29 -99,44 -170,44l-250 0 33 -126 273 0c18,0 32,-3 40,-8 8,-5 13,-12 15,-20 3,-8 0,-15 -6,-19 -7,-4 -16,-7 -28,-9z"/>
   <path class="fil1" d="M8597 509l33 -126 83 0 28 -105 149 0 -28 105 276 0 -33 126 -277 0 -55 210c-6,22 -6,37 1,46 7,8 21,12 41,12l83 0 -33 126 -102 0c-70,0 -116,-16 -139,-46 -22,-30 -25,-76 -9,-138l56 -210 -74 0z"/>
   <path class="fil1" d="M8971 903l137 -520 162 0 -137 520 -162 0zm311 -565l-162 0 27 -102 162 0 -27 102z"/>
   <path class="fil1" d="M9468 1032l-244 0 33 -123 245 0c44,0 74,-5 90,-15 15,-10 26,-26 32,-47l3 -11 -188 0c-61,0 -104,-19 -129,-56 -26,-38 -30,-90 -13,-156l6 -20c18,-69 50,-123 96,-162 46,-39 99,-59 159,-59l350 0 -119 449c-19,72 -53,123 -103,154 -49,31 -122,46 -218,46zm52 -314l138 0 55 -208 -138 0c-31,0 -54,6 -69,18 -15,13 -26,34 -34,64l-11 40c-8,29 -8,51 1,65 8,14 27,21 58,21z"/>
   <path class="fil1" d="M10436 691l-364 0 -1 4c-9,33 -8,55 4,66 11,11 34,16 68,16l259 0 -33 126 -249 0c-50,0 -91,-6 -122,-17 -32,-12 -55,-27 -70,-48 -15,-20 -24,-45 -26,-74 -1,-29 2,-60 12,-95l17 -66c18,-69 52,-123 102,-165 50,-41 120,-62 209,-62l34 0c47,0 85,6 114,18 29,11 49,28 62,49 13,21 19,46 19,75 0,30 -5,62 -15,98l-20 75zm-172 -199l-67 0c-27,0 -47,6 -61,19 -14,12 -25,32 -33,60l-3 11 212 0 3 -11c8,-28 7,-48 0,-60 -8,-13 -25,-19 -51,-19z"/>
   <path class="fil1" d="M6174 1699l138 -520 605 0c78,0 129,19 154,57 24,39 28,90 11,155l-82 308 -161 0 82 -312c7,-26 8,-45 2,-57 -6,-11 -21,-16 -46,-16l-107 0 -102 385 -162 0 102 -385 -170 0 -102 385 -162 0z"/>
   <path class="fil1" d="M7714 1408l-16 62c-19,72 -56,130 -110,173 -54,43 -121,64 -200,64l-60 0c-79,0 -135,-21 -167,-64 -31,-43 -38,-101 -19,-173l17 -62c19,-72 56,-130 110,-173 55,-43 122,-64 201,-64l60 0c79,0 134,21 166,64 31,43 37,101 18,173zm-162 -14c9,-33 10,-58 2,-75 -8,-16 -28,-25 -59,-25l-56 0c-31,0 -55,9 -72,25 -17,17 -30,42 -39,75l-23 89c-9,34 -10,59 -1,76 8,16 27,24 59,24l56 0c31,0 55,-8 71,-24 17,-17 30,-42 39,-76l23 -89z"/>
   <path class="fil1" d="M7790 1305l33 -126 83 0 28 -105 149 0 -28 105 174 0 -33 126 -175 0 -55 210c-6,22 -5,37 1,46 7,8 21,12 41,12l117 0 -33 126 -136 0c-70,0 -116,-16 -139,-46 -22,-30 -25,-76 -9,-138l56 -210 -74 0z"/>
   <path class="fil1" d="M8777 1408l-17 62c-19,72 -55,130 -110,173 -54,43 -121,64 -200,64l-59 0c-80,0 -135,-21 -167,-64 -32,-43 -38,-101 -19,-173l16 -62c19,-72 56,-130 111,-173 54,-43 121,-64 200,-64l60 0c79,0 135,21 166,64 32,43 38,101 19,173zm-162 -14c8,-33 9,-58 1,-75 -8,-16 -27,-25 -58,-25l-57 0c-31,0 -55,9 -72,25 -16,17 -29,42 -38,75l-24 89c-9,34 -9,59 -1,76 8,16 28,24 59,24l56 0c31,0 55,-8 72,-24 16,-17 29,-42 38,-76l24 -89z"/>
   <path class="fil1" d="M8867 1372c7,-24 17,-48 30,-71 13,-24 31,-44 51,-62 21,-18 45,-32 73,-43 28,-11 60,-17 95,-17l150 0 -33 126 -113 0c-29,0 -50,5 -63,15 -12,11 -22,29 -29,54l-86 325 -161 0 86 -327z"/>
   <path class="fil1" d="M9519 1517l-131 -28c-48,-10 -82,-28 -102,-54 -20,-26 -25,-61 -13,-104 5,-20 14,-40 26,-58 13,-19 29,-35 49,-49 20,-13 43,-24 71,-33 27,-8 58,-12 93,-12l253 0 -33 126 -266 0c-17,0 -29,2 -36,8 -7,5 -12,11 -13,17 -2,7 -1,13 2,18 4,5 12,9 24,11l119 25c59,13 99,32 119,57 20,25 25,59 14,100 -12,47 -40,85 -82,114 -43,29 -100,44 -170,44l-251 0 34 -126 277 0c18,0 31,-2 37,-8 7,-5 11,-11 14,-20 2,-8 0,-15 -7,-19 -6,-4 -16,-7 -28,-9z"/>
   <path class="fil2" d="M4531 1732l1251 0c95,0 178,-64 202,-155l50 -190 -1503 0 0 345z"/>
   <path class="fil2" d="M4531 1223l1385 0c94,0 177,-63 201,-155l50 -190 -1636 0 0 345z"/>
   <path class="fil2" d="M4531 369l0 346 1518 0c94,0 177,-64 201,-156l50 -190 -1769 0z"/>
   <path class="fil2" d="M2125 386c-39,-16 -81,-24 -123,-24 -91,0 -178,38 -241,104l-613 647 -562 581c-5,5 -9,10 -14,16l-19 22 476 0 369 -380 590 -623 0 669 342 0 1 -13c2,-13 3,-26 3,-37l0 -654c0,-136 -82,-257 -209,-308z"/>
   <path class="fil2" d="M2525 1051c0,376 306,681 682,681l1133 0 0 -345 -1133 0c-186,0 -336,-151 -336,-336 0,-186 150,-336 336,-336l1133 0 0 -346 -1133 0c-376,0 -682,306 -682,682z"/>
  </g>
 </g>
</svg>
